<mxfile host="app.diagrams.net" agent="Mozilla/5.0 (Windows NT 10.0; Win64; x64) AppleWebKit/537.36 (KHTML, like Gecko) Chrome/133.0.0.0 Safari/537.36" version="26.0.15">
  <diagram name="Page-1" id="q81V6D7OOyBBokkwj8Fw">
    <mxGraphModel dx="1035" dy="511" grid="1" gridSize="10" guides="1" tooltips="1" connect="1" arrows="1" fold="1" page="1" pageScale="1" pageWidth="850" pageHeight="1100" math="0" shadow="0">
      <root>
        <mxCell id="0" />
        <mxCell id="1" parent="0" />
        <mxCell id="_U5GMrZwOCNGPaZ26GaN-1" value="Operator&lt;div&gt;&lt;br&gt;&lt;/div&gt;" style="shape=umlActor;verticalLabelPosition=bottom;verticalAlign=top;html=1;outlineConnect=0;" vertex="1" parent="1">
          <mxGeometry x="110" y="130" width="30" height="60" as="geometry" />
        </mxCell>
        <mxCell id="_U5GMrZwOCNGPaZ26GaN-2" value="Tambah Kuisioner" style="ellipse;whiteSpace=wrap;html=1;" vertex="1" parent="1">
          <mxGeometry x="365" y="60" width="120" height="80" as="geometry" />
        </mxCell>
        <mxCell id="_U5GMrZwOCNGPaZ26GaN-3" value="Buat Akun Tim Peneliti" style="ellipse;whiteSpace=wrap;html=1;" vertex="1" parent="1">
          <mxGeometry x="365" y="160" width="120" height="80" as="geometry" />
        </mxCell>
        <mxCell id="_U5GMrZwOCNGPaZ26GaN-5" value="Tambah Data Pasien" style="ellipse;whiteSpace=wrap;html=1;" vertex="1" parent="1">
          <mxGeometry x="365" y="260" width="120" height="80" as="geometry" />
        </mxCell>
        <mxCell id="_U5GMrZwOCNGPaZ26GaN-7" value="" style="endArrow=none;html=1;rounded=0;entryX=0;entryY=0.5;entryDx=0;entryDy=0;" edge="1" parent="1" target="_U5GMrZwOCNGPaZ26GaN-2">
          <mxGeometry width="50" height="50" relative="1" as="geometry">
            <mxPoint x="150" y="160" as="sourcePoint" />
            <mxPoint x="450" y="100" as="targetPoint" />
          </mxGeometry>
        </mxCell>
        <mxCell id="_U5GMrZwOCNGPaZ26GaN-8" value="" style="endArrow=none;html=1;rounded=0;entryX=0;entryY=0.5;entryDx=0;entryDy=0;" edge="1" parent="1" target="_U5GMrZwOCNGPaZ26GaN-3">
          <mxGeometry width="50" height="50" relative="1" as="geometry">
            <mxPoint x="150" y="170" as="sourcePoint" />
            <mxPoint x="375" y="110" as="targetPoint" />
          </mxGeometry>
        </mxCell>
        <mxCell id="_U5GMrZwOCNGPaZ26GaN-9" value="" style="endArrow=none;html=1;rounded=0;entryX=0;entryY=0.5;entryDx=0;entryDy=0;" edge="1" parent="1" target="_U5GMrZwOCNGPaZ26GaN-5">
          <mxGeometry width="50" height="50" relative="1" as="geometry">
            <mxPoint x="150" y="180" as="sourcePoint" />
            <mxPoint x="385" y="120" as="targetPoint" />
          </mxGeometry>
        </mxCell>
        <mxCell id="_U5GMrZwOCNGPaZ26GaN-10" value="Tim Peneliti&lt;div&gt;&lt;br&gt;&lt;/div&gt;" style="shape=umlActor;verticalLabelPosition=bottom;verticalAlign=top;html=1;outlineConnect=0;" vertex="1" parent="1">
          <mxGeometry x="100" y="400" width="30" height="60" as="geometry" />
        </mxCell>
        <mxCell id="_U5GMrZwOCNGPaZ26GaN-11" value="&#xa;Isi Kuisioner Pretest&#xa;&#xa;" style="ellipse;whiteSpace=wrap;html=1;" vertex="1" parent="1">
          <mxGeometry x="360" y="370" width="120" height="80" as="geometry" />
        </mxCell>
        <mxCell id="_U5GMrZwOCNGPaZ26GaN-12" value="Isi Kuisioner Posttest" style="ellipse;whiteSpace=wrap;html=1;" vertex="1" parent="1">
          <mxGeometry x="360" y="480" width="120" height="80" as="geometry" />
        </mxCell>
        <mxCell id="_U5GMrZwOCNGPaZ26GaN-13" value="" style="endArrow=none;html=1;rounded=0;entryX=0;entryY=0.5;entryDx=0;entryDy=0;" edge="1" parent="1" target="_U5GMrZwOCNGPaZ26GaN-11">
          <mxGeometry width="50" height="50" relative="1" as="geometry">
            <mxPoint x="160" y="430" as="sourcePoint" />
            <mxPoint x="375" y="310" as="targetPoint" />
          </mxGeometry>
        </mxCell>
        <mxCell id="_U5GMrZwOCNGPaZ26GaN-14" value="" style="endArrow=none;html=1;rounded=0;entryX=-0.027;entryY=0.407;entryDx=0;entryDy=0;entryPerimeter=0;" edge="1" parent="1" target="_U5GMrZwOCNGPaZ26GaN-12">
          <mxGeometry width="50" height="50" relative="1" as="geometry">
            <mxPoint x="160" y="450" as="sourcePoint" />
            <mxPoint x="385" y="320" as="targetPoint" />
          </mxGeometry>
        </mxCell>
        <mxCell id="_U5GMrZwOCNGPaZ26GaN-16" style="edgeStyle=orthogonalEdgeStyle;rounded=0;orthogonalLoop=1;jettySize=auto;html=1;exitX=0;exitY=0.5;exitDx=0;exitDy=0;entryX=1;entryY=0.5;entryDx=0;entryDy=0;dashed=1;" edge="1" parent="1" source="_U5GMrZwOCNGPaZ26GaN-15" target="_U5GMrZwOCNGPaZ26GaN-11">
          <mxGeometry relative="1" as="geometry" />
        </mxCell>
        <mxCell id="_U5GMrZwOCNGPaZ26GaN-15" value="Lihat Hasil Pretest" style="ellipse;whiteSpace=wrap;html=1;" vertex="1" parent="1">
          <mxGeometry x="580" y="370" width="120" height="80" as="geometry" />
        </mxCell>
        <mxCell id="_U5GMrZwOCNGPaZ26GaN-18" style="edgeStyle=orthogonalEdgeStyle;rounded=0;orthogonalLoop=1;jettySize=auto;html=1;exitX=0;exitY=0.5;exitDx=0;exitDy=0;entryX=1;entryY=0.5;entryDx=0;entryDy=0;dashed=1;" edge="1" parent="1" source="_U5GMrZwOCNGPaZ26GaN-17" target="_U5GMrZwOCNGPaZ26GaN-12">
          <mxGeometry relative="1" as="geometry" />
        </mxCell>
        <mxCell id="_U5GMrZwOCNGPaZ26GaN-17" value="Lihat Hasil Posttest" style="ellipse;whiteSpace=wrap;html=1;" vertex="1" parent="1">
          <mxGeometry x="580" y="480" width="120" height="80" as="geometry" />
        </mxCell>
      </root>
    </mxGraphModel>
  </diagram>
</mxfile>
